<?xml version="1.0" encoding="UTF-8" standalone="no"?>
<svg
   width="2179"
   height="1696"
   overflow="hidden"
   version="1.1"
   id="svg177"
   sodipodi:docname="ids_vanet.svg"
   inkscape:version="1.1 (c68e22c387, 2021-05-23)"
   xmlns:inkscape="http://www.inkscape.org/namespaces/inkscape"
   xmlns:sodipodi="http://sodipodi.sourceforge.net/DTD/sodipodi-0.dtd"
   xmlns="http://www.w3.org/2000/svg"
   xmlns:svg="http://www.w3.org/2000/svg">
  <sodipodi:namedview
     id="namedview179"
     pagecolor="#ffffff"
     bordercolor="#666666"
     borderopacity="1.0"
     inkscape:pageshadow="2"
     inkscape:pageopacity="0.0"
     inkscape:pagecheckerboard="0"
     showgrid="false"
     inkscape:zoom="0.49410377"
     inkscape:cx="1089.852"
     inkscape:cy="846.98807"
     inkscape:window-width="1920"
     inkscape:window-height="1001"
     inkscape:window-x="-9"
     inkscape:window-y="-9"
     inkscape:window-maximized="1"
     inkscape:current-layer="svg177" />
  <defs
     id="defs59">
    <clipPath
       id="clip0">
      <rect
         x="963"
         y="305"
         width="2179"
         height="1696"
         id="rect2" />
    </clipPath>
    <clipPath
       id="clip1">
      <rect
         x="1062"
         y="1171"
         width="331"
         height="331"
         id="rect5" />
    </clipPath>
    <clipPath
       id="clip2">
      <rect
         x="1062"
         y="1171"
         width="331"
         height="331"
         id="rect8" />
    </clipPath>
    <clipPath
       id="clip3">
      <rect
         x="1062"
         y="1171"
         width="331"
         height="331"
         id="rect11" />
    </clipPath>
    <clipPath
       id="clip4">
      <rect
         x="2055"
         y="385"
         width="331"
         height="330"
         id="rect14" />
    </clipPath>
    <clipPath
       id="clip5">
      <rect
         x="2055"
         y="385"
         width="331"
         height="330"
         id="rect17" />
    </clipPath>
    <clipPath
       id="clip6">
      <rect
         x="2055"
         y="385"
         width="331"
         height="330"
         id="rect20" />
    </clipPath>
    <clipPath
       id="clip7">
      <rect
         x="1436"
         y="485"
         width="331"
         height="331"
         id="rect23" />
    </clipPath>
    <clipPath
       id="clip8">
      <rect
         x="1436"
         y="485"
         width="331"
         height="331"
         id="rect26" />
    </clipPath>
    <clipPath
       id="clip9">
      <rect
         x="1436"
         y="485"
         width="331"
         height="331"
         id="rect29" />
    </clipPath>
    <clipPath
       id="clip10">
      <rect
         x="2630"
         y="815"
         width="331"
         height="331"
         id="rect32" />
    </clipPath>
    <clipPath
       id="clip11">
      <rect
         x="2630"
         y="815"
         width="331"
         height="331"
         id="rect35" />
    </clipPath>
    <clipPath
       id="clip12">
      <rect
         x="2630"
         y="815"
         width="331"
         height="331"
         id="rect38" />
    </clipPath>
    <clipPath
       id="clip13">
      <rect
         x="1725"
         y="1646"
         width="331"
         height="331"
         id="rect41" />
    </clipPath>
    <clipPath
       id="clip14">
      <rect
         x="1725"
         y="1646"
         width="331"
         height="331"
         id="rect44" />
    </clipPath>
    <clipPath
       id="clip15">
      <rect
         x="1725"
         y="1646"
         width="331"
         height="331"
         id="rect47" />
    </clipPath>
    <clipPath
       id="clip16">
      <rect
         x="2300"
         y="1670"
         width="331"
         height="331"
         id="rect50" />
    </clipPath>
    <clipPath
       id="clip17">
      <rect
         x="2300"
         y="1670"
         width="331"
         height="331"
         id="rect53" />
    </clipPath>
    <clipPath
       id="clip18">
      <rect
         x="2300"
         y="1670"
         width="331"
         height="331"
         id="rect56" />
    </clipPath>
  </defs>
  <g
     clip-path="url(#clip0)"
     transform="translate(-963,-305)"
     id="g175">
    <g
       clip-path="url(#clip1)"
       id="g71">
      <g
         clip-path="url(#clip2)"
         id="g69">
        <g
           clip-path="url(#clip3)"
           id="g67">
          <path
             d="m 1173,1384.13 c 0,15.18 -12.31,27.5 -27.5,27.5 -15.19,0 -27.5,-12.32 -27.5,-27.5 0,-15.19 12.31,-27.5 27.5,-27.5 15.19,0 27.5,12.31 27.5,27.5 z"
             fill="#ef8b47"
             id="path61" />
          <path
             d="m 1338,1384.13 c 0,15.18 -12.31,27.5 -27.5,27.5 -15.19,0 -27.5,-12.32 -27.5,-27.5 0,-15.19 12.31,-27.5 27.5,-27.5 15.19,0 27.5,12.31 27.5,27.5 z"
             fill="#ef8b47"
             id="path63" />
          <path
             d="m 1197.06,1315.38 v -41.25 h 47.1 c 3.78,0 7.21,1.37 9.62,4.12 l 37.13,37.13 z m -13.75,0 h -86.97 l 37.13,-37.13 c 2.75,-2.75 6.19,-4.12 9.62,-4.12 h 40.22 z m 161.56,0 h -28.53 c -3.78,0 -7.22,-1.38 -9.62,-4.13 l -43.31,-42.97 c -5.16,-5.15 -12.04,-7.9 -19.6,-7.9 h -100.72 c -7.22,0 -14.43,2.75 -19.59,7.9 l -42.63,42.97 c -2.75,2.75 -4.12,6.19 -4.12,9.97 v 35.41 c 0,15.12 12.37,27.5 27.5,27.5 h 3.44 c 0,-20.97 16.84,-37.82 37.81,-37.82 20.97,0 37.81,16.85 37.81,37.82 h 89.38 c 0,-20.97 16.84,-37.82 37.81,-37.82 20.97,0 37.81,16.85 37.81,37.82 h 17.19 c 7.56,0 13.75,-6.19 13.75,-13.75 v -20.63 c 0,-18.91 -15.47,-34.37 -34.38,-34.37 z"
             fill="#ef8b47"
             id="path65" />
        </g>
      </g>
    </g>
    <g
       clip-path="url(#clip4)"
       id="g83">
      <g
         clip-path="url(#clip5)"
         id="g81">
        <g
           clip-path="url(#clip6)"
           id="g79">
          <path
             d="m 2166,598.125 c 0,15.188 -12.31,27.5 -27.5,27.5 -15.19,0 -27.5,-12.312 -27.5,-27.5 0,-15.188 12.31,-27.5 27.5,-27.5 15.19,0 27.5,12.312 27.5,27.5 z"
             fill="#ef8b47"
             id="path73" />
          <path
             d="m 2331,598.125 c 0,15.188 -12.31,27.5 -27.5,27.5 -15.19,0 -27.5,-12.312 -27.5,-27.5 0,-15.188 12.31,-27.5 27.5,-27.5 15.19,0 27.5,12.312 27.5,27.5 z"
             fill="#ef8b47"
             id="path75" />
          <path
             d="m 2190.06,529.375 v -41.25 h 47.1 c 3.78,0 7.22,1.375 9.62,4.125 l 37.13,37.125 z m -13.75,0 h -86.97 l 37.13,-37.125 c 2.75,-2.75 6.19,-4.125 9.62,-4.125 h 40.22 z m 161.57,0 h -28.54 c -3.78,0 -7.22,-1.375 -9.62,-4.125 l -43.31,-42.969 c -5.16,-5.156 -12.03,-7.906 -19.6,-7.906 h -100.72 c -7.21,0 -14.43,2.75 -19.59,7.906 l -42.62,42.969 c -2.76,2.75 -4.13,6.188 -4.13,9.969 v 35.406 c 0,15.125 12.37,27.5 27.5,27.5 h 3.44 c 0,-20.969 16.84,-37.813 37.81,-37.813 20.97,0 37.81,16.844 37.81,37.813 h 89.38 c 0,-20.969 16.84,-37.813 37.81,-37.813 20.97,0 37.81,16.844 37.81,37.813 h 17.19 c 7.56,0 13.75,-6.187 13.75,-13.75 V 563.75 c 0,-18.906 -15.47,-34.375 -34.37,-34.375 z"
             fill="#ef8b47"
             id="path77" />
        </g>
      </g>
    </g>
    <g
       clip-path="url(#clip7)"
       id="g95">
      <g
         clip-path="url(#clip8)"
         id="g93">
        <g
           clip-path="url(#clip9)"
           id="g91">
          <path
             d="m 1547,698.125 c 0,15.188 -12.31,27.5 -27.5,27.5 -15.19,0 -27.5,-12.312 -27.5,-27.5 0,-15.188 12.31,-27.5 27.5,-27.5 15.19,0 27.5,12.312 27.5,27.5 z"
             fill="#ef8b47"
             id="path85" />
          <path
             d="m 1712,698.125 c 0,15.188 -12.31,27.5 -27.5,27.5 -15.19,0 -27.5,-12.312 -27.5,-27.5 0,-15.188 12.31,-27.5 27.5,-27.5 15.19,0 27.5,12.312 27.5,27.5 z"
             fill="#ef8b47"
             id="path87" />
          <path
             d="m 1571.06,629.375 v -41.25 h 47.1 c 3.78,0 7.21,1.375 9.62,4.125 l 37.13,37.125 z m -13.75,0 h -86.97 l 37.13,-37.125 c 2.75,-2.75 6.19,-4.125 9.62,-4.125 h 40.22 z m 161.56,0 h -28.53 c -3.78,0 -7.22,-1.375 -9.62,-4.125 l -43.31,-42.969 c -5.16,-5.156 -12.04,-7.906 -19.6,-7.906 h -100.72 c -7.22,0 -14.43,2.75 -19.59,7.906 l -42.63,42.969 c -2.75,2.75 -4.12,6.188 -4.12,9.969 v 35.406 c 0,15.125 12.37,27.5 27.5,27.5 h 3.44 c 0,-20.969 16.84,-37.813 37.81,-37.813 20.97,0 37.81,16.844 37.81,37.813 h 89.38 c 0,-20.969 16.84,-37.813 37.81,-37.813 20.97,0 37.81,16.844 37.81,37.813 h 17.19 c 7.56,0 13.75,-6.187 13.75,-13.75 V 663.75 c 0,-18.906 -15.47,-34.375 -34.38,-34.375 z"
             fill="#ef8b47"
             id="path89" />
        </g>
      </g>
    </g>
    <g
       clip-path="url(#clip10)"
       id="g107">
      <g
         clip-path="url(#clip11)"
         id="g105">
        <g
           clip-path="url(#clip12)"
           id="g103">
          <path
             d="m 2740,1028.12 c 0,15.19 -12.31,27.5 -27.5,27.5 -15.19,0 -27.5,-12.31 -27.5,-27.5 0,-15.18 12.31,-27.49 27.5,-27.49 15.19,0 27.5,12.31 27.5,27.49 z"
             fill="#ef8b47"
             id="path97" />
          <path
             d="m 2905,1028.12 c 0,15.19 -12.31,27.5 -27.5,27.5 -15.19,0 -27.5,-12.31 -27.5,-27.5 0,-15.18 12.31,-27.49 27.5,-27.49 15.19,0 27.5,12.31 27.5,27.49 z"
             fill="#ef8b47"
             id="path99" />
          <path
             d="m 2764.06,959.375 v -41.25 h 47.1 c 3.78,0 7.22,1.375 9.62,4.125 l 37.13,37.125 z m -13.75,0 h -86.97 l 37.13,-37.125 c 2.75,-2.75 6.19,-4.125 9.62,-4.125 h 40.22 z m 161.57,0 h -28.54 c -3.78,0 -7.22,-1.375 -9.62,-4.125 l -43.31,-42.969 c -5.16,-5.156 -12.03,-7.906 -19.6,-7.906 h -100.72 c -7.21,0 -14.43,2.75 -19.59,7.906 l -42.62,42.969 c -2.76,2.75 -4.13,6.188 -4.13,9.969 v 35.411 c 0,15.12 12.37,27.49 27.5,27.49 h 3.44 c 0,-20.96 16.84,-37.807 37.81,-37.807 20.97,0 37.81,16.847 37.81,37.807 h 89.38 c 0,-20.96 16.84,-37.807 37.81,-37.807 20.97,0 37.81,16.847 37.81,37.807 h 17.19 c 7.56,0 13.75,-6.18 13.75,-13.74 v -20.63 c 0,-18.906 -15.47,-34.375 -34.37,-34.375 z"
             fill="#ef8b47"
             id="path101" />
        </g>
      </g>
    </g>
    <g
       clip-path="url(#clip13)"
       id="g119">
      <g
         clip-path="url(#clip14)"
         id="g117">
        <g
           clip-path="url(#clip15)"
           id="g115">
          <path
             d="m 1836,1860.12 c 0,15.19 -12.31,27.5 -27.5,27.5 -15.19,0 -27.5,-12.31 -27.5,-27.5 0,-15.18 12.31,-27.5 27.5,-27.5 15.19,0 27.5,12.32 27.5,27.5 z"
             fill="#ef8b47"
             id="path109" />
          <path
             d="m 2001,1860.12 c 0,15.19 -12.31,27.5 -27.5,27.5 -15.19,0 -27.5,-12.31 -27.5,-27.5 0,-15.18 12.31,-27.5 27.5,-27.5 15.19,0 27.5,12.32 27.5,27.5 z"
             fill="#ef8b47"
             id="path111" />
          <path
             d="m 1860.06,1791.37 v -41.25 h 47.1 c 3.78,0 7.22,1.38 9.62,4.13 l 37.13,37.12 z m -13.75,0 h -86.97 l 37.13,-37.12 c 2.75,-2.75 6.19,-4.13 9.62,-4.13 h 40.22 z m 161.57,0 h -28.54 c -3.78,0 -7.22,-1.37 -9.62,-4.12 l -43.31,-42.97 c -5.16,-5.16 -12.03,-7.91 -19.6,-7.91 h -100.72 c -7.21,0 -14.43,2.75 -19.59,7.91 l -42.62,42.97 c -2.76,2.75 -4.13,6.19 -4.13,9.97 v 35.4 c 0,15.13 12.37,27.5 27.5,27.5 h 3.44 c 0,-20.96 16.84,-37.81 37.81,-37.81 20.97,0 37.81,16.85 37.81,37.81 h 89.38 c 0,-20.96 16.84,-37.81 37.81,-37.81 20.97,0 37.81,16.85 37.81,37.81 h 17.19 c 7.56,0 13.75,-6.18 13.75,-13.75 v -20.62 c 0,-18.91 -15.47,-34.38 -34.37,-34.38 z"
             fill="#ef8b47"
             id="path113" />
        </g>
      </g>
    </g>
    <g
       clip-path="url(#clip16)"
       id="g131">
      <g
         clip-path="url(#clip17)"
         id="g129">
        <g
           clip-path="url(#clip18)"
           id="g127">
          <path
             d="m 2410,1884.12 c 0,15.19 -12.31,27.5 -27.5,27.5 -15.19,0 -27.5,-12.31 -27.5,-27.5 0,-15.18 12.31,-27.5 27.5,-27.5 15.19,0 27.5,12.32 27.5,27.5 z"
             fill="#ef8b47"
             id="path121" />
          <path
             d="m 2575,1884.12 c 0,15.19 -12.31,27.5 -27.5,27.5 -15.19,0 -27.5,-12.31 -27.5,-27.5 0,-15.18 12.31,-27.5 27.5,-27.5 15.19,0 27.5,12.32 27.5,27.5 z"
             fill="#ef8b47"
             id="path123" />
          <path
             d="m 2434.06,1815.38 v -41.26 h 47.1 c 3.78,0 7.22,1.38 9.62,4.13 l 37.13,37.13 z m -13.75,0 h -86.97 l 37.13,-37.13 c 2.75,-2.75 6.19,-4.13 9.62,-4.13 h 40.22 z m 161.57,0 h -28.54 c -3.78,0 -7.22,-1.38 -9.62,-4.13 l -43.31,-42.97 c -5.16,-5.16 -12.03,-7.9 -19.6,-7.9 h -100.72 c -7.21,0 -14.43,2.74 -19.59,7.9 l -42.62,42.97 c -2.76,2.75 -4.13,6.19 -4.13,9.97 v 35.4 c 0,15.13 12.37,27.5 27.5,27.5 h 3.44 c 0,-20.96 16.84,-37.81 37.81,-37.81 20.97,0 37.81,16.85 37.81,37.81 h 89.38 c 0,-20.96 16.84,-37.81 37.81,-37.81 20.97,0 37.81,16.85 37.81,37.81 h 17.19 c 7.56,0 13.75,-6.18 13.75,-13.74 v -20.63 c 0,-18.91 -15.47,-34.37 -34.37,-34.37 z"
             fill="#ef8b47"
             id="path125" />
        </g>
      </g>
    </g>
    <path
       d="m 1705,1530 c 0,-13.81 11.19,-25 25,-25 h 194 c 13.81,0 25,11.19 25,25 v 100 c 0,13.81 -11.19,25 -25,25 h -194 c -13.81,0 -25,-11.19 -25,-25 z"
       stroke="#000000"
       stroke-width="10.3125"
       stroke-miterlimit="8"
       fill="#ffffff"
       fill-rule="evenodd"
       id="path133" />
    <g
       aria-label="IDS"
       transform="translate(1775.15,1599)"
       id="text135"
       style="font-size:64px;font-family:Nunito, Nunito_MSFontService, sans-serif">
      <path
         d="m 8.192,0.448 q -2.624,0 -2.624,-2.752 v -40.512 q 0,-2.752 2.624,-2.752 2.624,0 2.624,2.752 v 40.512 q 0,2.752 -2.624,2.752 z"
         style="font-size:64px;font-family:Nunito, Nunito_MSFontService, sans-serif"
         id="path996" />
      <path
         d="m 24.895998,0 q -2.88,0 -2.88,-2.88 v -39.36 q 0,-2.88 2.88,-2.88 h 12.352 q 10.944,0 16.896,5.824 5.952,5.76 5.952,16.704 0,10.944 -5.952,16.768 Q 48.191998,0 37.247998,0 Z m 2.368,-4.48 h 9.6 q 17.664,0 17.664,-18.112 0,-18.048 -17.664,-18.048 h -9.6 z"
         style="font-size:64px;font-family:Nunito, Nunito_MSFontService, sans-serif"
         id="path998" />
      <path
         d="m 84.095913,0.576 q -4.608,0 -8.704,-1.088 -4.032,-1.152 -6.976,-3.328 -1.024,-0.704 -1.216,-1.664 -0.192,-0.96 0.192,-1.792 0.448,-0.832 1.28,-1.088 0.832,-0.32 1.92,0.384 2.88,2.112 6.144,3.008 3.264,0.896 7.36,0.896 5.76,0 8.512,-2.112 2.816,-2.176 2.816,-5.696 0,-2.816 -2.048,-4.48 -1.984,-1.664 -6.72,-2.624 l -6.656,-1.344 q -6.016,-1.28 -9.024,-4.16 -2.944,-2.944 -2.944,-7.808 0,-4.032 2.048,-7.04 2.112,-3.008 5.824,-4.672 3.712,-1.664 8.576,-1.664 4.032,0 7.488,1.152 3.52,1.088 6.336,3.328 0.896,0.704 1.024,1.664 0.192,0.896 -0.256,1.664 -0.448,0.768 -1.28,1.024 -0.832,0.192 -1.984,-0.512 -2.56,-1.984 -5.376,-2.816 -2.752,-0.832 -6.016,-0.832 -5.056,0 -8.064,2.368 -3.008,2.304 -3.008,6.144 0,3.072 1.856,4.864 1.92,1.792 6.208,2.624 l 6.656,1.408 q 6.464,1.344 9.536,4.096 3.135997,2.688 3.135997,7.36 0,3.776 -2.047997,6.656 -1.984,2.88 -5.76,4.48 -3.712,1.6 -8.832,1.6 z"
         style="font-size:64px;font-family:Nunito, Nunito_MSFontService, sans-serif"
         id="path1000" />
    </g>
    <path
       d="M 0,0 288.75,99.5745"
       stroke="#000000"
       stroke-width="4.58333"
       stroke-miterlimit="8"
       stroke-dasharray="18.3333, 13.75"
       fill="none"
       fill-rule="evenodd"
       transform="matrix(1,0,0,-1,1767.5,650.074)"
       id="path137" />
    <path
       d="m 2386.5,550.5 363.31,353.228"
       stroke="#000000"
       stroke-width="4.58333"
       stroke-miterlimit="8"
       stroke-dasharray="18.3333, 13.75"
       fill="none"
       fill-rule="evenodd"
       id="path139" />
    <path
       d="M 0,0 263.62,773.504"
       stroke="#000000"
       stroke-width="4.58333"
       stroke-miterlimit="8"
       stroke-dasharray="18.3333, 13.75"
       fill="none"
       fill-rule="evenodd"
       transform="matrix(-1,0,0,1,2795.12,1038.5)"
       id="path141" />
    <path
       d="M 0,0 246.454,589.945"
       stroke="#000000"
       stroke-width="4.58333"
       stroke-miterlimit="8"
       stroke-dasharray="18.3333, 13.75"
       fill="none"
       fill-rule="evenodd"
       transform="matrix(-1,0,0,1,1471.95,676.5)"
       id="path143" />
    <path
       d="m 1351.5,1365.5 374.42,446.71"
       stroke="#000000"
       stroke-width="4.58333"
       stroke-miterlimit="8"
       stroke-dasharray="18.3333, 13.75"
       fill="none"
       fill-rule="evenodd"
       id="path145" />
    <path
       d="m 2056.5,1812.5 244.06,24.06"
       stroke="#000000"
       stroke-width="4.58333"
       stroke-miterlimit="8"
       stroke-dasharray="18.3333, 13.75"
       fill="none"
       fill-rule="evenodd"
       id="path147" />
    <path
       d="m 2236,1456 c 0,-13.81 11.19,-25 25,-25 h 194 c 13.81,0 25,11.19 25,25 v 100 c 0,13.81 -11.19,25 -25,25 h -194 c -13.81,0 -25,-11.19 -25,-25 z"
       stroke="#000000"
       stroke-width="10.3125"
       stroke-miterlimit="8"
       fill="#ffffff"
       fill-rule="evenodd"
       id="path149" />
    <g
       aria-label="IDS"
       transform="translate(2306.06,1524)"
       id="text151"
       style="font-size:64px;font-family:Nunito, Nunito_MSFontService, sans-serif">
      <path
         d="m 8.192,0.448 q -2.624,0 -2.624,-2.752 v -40.512 q 0,-2.752 2.624,-2.752 2.624,0 2.624,2.752 v 40.512 q 0,2.752 -2.624,2.752 z"
         style="font-size:64px;font-family:Nunito, Nunito_MSFontService, sans-serif"
         id="path1003" />
      <path
         d="m 24.895998,0 q -2.88,0 -2.88,-2.88 v -39.36 q 0,-2.88 2.88,-2.88 h 12.352 q 10.944,0 16.896,5.824 5.952,5.76 5.952,16.704 0,10.944 -5.952,16.768 Q 48.191998,0 37.247998,0 Z m 2.368,-4.48 h 9.6 q 17.664,0 17.664,-18.112 0,-18.048 -17.664,-18.048 h -9.6 z"
         style="font-size:64px;font-family:Nunito, Nunito_MSFontService, sans-serif"
         id="path1005" />
      <path
         d="m 84.095913,0.576 q -4.608,0 -8.704,-1.088 -4.032,-1.152 -6.976,-3.328 -1.024,-0.704 -1.216,-1.664 -0.192,-0.96 0.192,-1.792 0.448,-0.832 1.28,-1.088 0.832,-0.32 1.92,0.384 2.88,2.112 6.144,3.008 3.264,0.896 7.36,0.896 5.76,0 8.512,-2.112 2.816,-2.176 2.816,-5.696 0,-2.816 -2.048,-4.48 -1.984,-1.664 -6.72,-2.624 l -6.656,-1.344 q -6.016,-1.28 -9.024,-4.16 -2.944,-2.944 -2.944,-7.808 0,-4.032 2.048,-7.04 2.112,-3.008 5.824,-4.672 3.712,-1.664 8.576,-1.664 4.032,0 7.488,1.152 3.52,1.088 6.336,3.328 0.896,0.704 1.024,1.664 0.192,0.896 -0.256,1.664 -0.448,0.768 -1.28,1.024 -0.832,0.192 -1.984,-0.512 -2.56,-1.984 -5.376,-2.816 -2.752,-0.832 -6.016,-0.832 -5.056,0 -8.064,2.368 -3.008,2.304 -3.008,6.144 0,3.072 1.856,4.864 1.92,1.792 6.208,2.624 l 6.656,1.408 q 6.464,1.344 9.536,4.096 3.135997,2.688 3.135997,7.36 0,3.776 -2.047997,6.656 -1.984,2.88 -5.76,4.48 -3.712,1.6 -8.832,1.6 z"
         style="font-size:64px;font-family:Nunito, Nunito_MSFontService, sans-serif"
         id="path1007" />
    </g>
    <path
       d="m 2340,335 c 0,-13.807 11.19,-25 25,-25 h 194 c 13.81,0 25,11.193 25,25 v 100 c 0,13.807 -11.19,25 -25,25 h -194 c -13.81,0 -25,-11.193 -25,-25 z"
       stroke="#000000"
       stroke-width="10.3125"
       stroke-miterlimit="8"
       fill="#ffffff"
       fill-rule="evenodd"
       id="path153" />
    <g
       aria-label="IDS"
       transform="translate(2410.59,404)"
       id="text155"
       style="font-size:64px;font-family:Nunito, Nunito_MSFontService, sans-serif">
      <path
         d="m 8.192,0.448 q -2.624,0 -2.624,-2.752 v -40.512 q 0,-2.752 2.624,-2.752 2.624,0 2.624,2.752 v 40.512 q 0,2.752 -2.624,2.752 z"
         style="font-size:64px;font-family:Nunito, Nunito_MSFontService, sans-serif"
         id="path1010" />
      <path
         d="m 24.895998,0 q -2.88,0 -2.88,-2.88 v -39.36 q 0,-2.88 2.88,-2.88 h 12.352 q 10.944,0 16.896,5.824 5.952,5.76 5.952,16.704 0,10.944 -5.952,16.768 Q 48.191998,0 37.247998,0 Z m 2.368,-4.48 h 9.6 q 17.664,0 17.664,-18.112 0,-18.048 -17.664,-18.048 h -9.6 z"
         style="font-size:64px;font-family:Nunito, Nunito_MSFontService, sans-serif"
         id="path1012" />
      <path
         d="m 84.095913,0.576 q -4.608,0 -8.704,-1.088 -4.032,-1.152 -6.976,-3.328 -1.024,-0.704 -1.216,-1.664 -0.192,-0.96 0.192,-1.792 0.448,-0.832 1.28,-1.088 0.832,-0.32 1.92,0.384 2.88,2.112 6.144,3.008 3.264,0.896 7.36,0.896 5.76,0 8.512,-2.112 2.816,-2.176 2.816,-5.696 0,-2.816 -2.048,-4.48 -1.984,-1.664 -6.72,-2.624 l -6.656,-1.344 q -6.016,-1.28 -9.024,-4.16 -2.944,-2.944 -2.944,-7.808 0,-4.032 2.048,-7.04 2.112,-3.008 5.824,-4.672 3.712,-1.664 8.576,-1.664 4.032,0 7.488,1.152 3.52,1.088 6.336,3.328 0.896,0.704 1.024,1.664 0.192,0.896 -0.256,1.664 -0.448,0.768 -1.28,1.024 -0.832,0.192 -1.984,-0.512 -2.56,-1.984 -5.376,-2.816 -2.752,-0.832 -6.016,-0.832 -5.056,0 -8.064,2.368 -3.008,2.304 -3.008,6.144 0,3.072 1.856,4.864 1.92,1.792 6.208,2.624 l 6.656,1.408 q 6.464,1.344 9.536,4.096 3.135997,2.688 3.135997,7.36 0,3.776 -2.047997,6.656 -1.984,2.88 -5.76,4.48 -3.712,1.6 -8.832,1.6 z"
         style="font-size:64px;font-family:Nunito, Nunito_MSFontService, sans-serif"
         id="path1014" />
    </g>
    <path
       d="m 2893,1128 c 0,-13.81 11.19,-25 25,-25 h 194 c 13.81,0 25,11.19 25,25 v 100 c 0,13.81 -11.19,25 -25,25 h -194 c -13.81,0 -25,-11.19 -25,-25 z"
       stroke="#000000"
       stroke-width="10.3125"
       stroke-miterlimit="8"
       fill="#ffffff"
       fill-rule="evenodd"
       id="path157" />
    <g
       aria-label="IDS"
       transform="translate(2963.49,1196)"
       id="text159"
       style="font-size:64px;font-family:Nunito, Nunito_MSFontService, sans-serif">
      <path
         d="m 8.192,0.448 q -2.624,0 -2.624,-2.752 v -40.512 q 0,-2.752 2.624,-2.752 2.624,0 2.624,2.752 v 40.512 q 0,2.752 -2.624,2.752 z"
         style="font-size:64px;font-family:Nunito, Nunito_MSFontService, sans-serif"
         id="path1017" />
      <path
         d="m 24.895998,0 q -2.88,0 -2.88,-2.88 v -39.36 q 0,-2.88 2.88,-2.88 h 12.352 q 10.944,0 16.896,5.824 5.952,5.76 5.952,16.704 0,10.944 -5.952,16.768 Q 48.191998,0 37.247998,0 Z m 2.368,-4.48 h 9.6 q 17.664,0 17.664,-18.112 0,-18.048 -17.664,-18.048 h -9.6 z"
         style="font-size:64px;font-family:Nunito, Nunito_MSFontService, sans-serif"
         id="path1019" />
      <path
         d="m 84.095913,0.576 q -4.608,0 -8.704,-1.088 -4.032,-1.152 -6.976,-3.328 -1.024,-0.704 -1.216,-1.664 -0.192,-0.96 0.192,-1.792 0.448,-0.832 1.28,-1.088 0.832,-0.32 1.92,0.384 2.88,2.112 6.144,3.008 3.264,0.896 7.36,0.896 5.76,0 8.512,-2.112 2.816,-2.176 2.816,-5.696 0,-2.816 -2.048,-4.48 -1.984,-1.664 -6.72,-2.624 l -6.656,-1.344 q -6.016,-1.28 -9.024,-4.16 -2.944,-2.944 -2.944,-7.808 0,-4.032 2.048,-7.04 2.112,-3.008 5.824,-4.672 3.712,-1.664 8.576,-1.664 4.032,0 7.488,1.152 3.52,1.088 6.336,3.328 0.896,0.704 1.024,1.664 0.192,0.896 -0.256,1.664 -0.448,0.768 -1.28,1.024 -0.832,0.192 -1.984,-0.512 -2.56,-1.984 -5.376,-2.816 -2.752,-0.832 -6.016,-0.832 -5.056,0 -8.064,2.368 -3.008,2.304 -3.008,6.144 0,3.072 1.856,4.864 1.92,1.792 6.208,2.624 l 6.656,1.408 q 6.464,1.344 9.536,4.096 3.135997,2.688 3.135997,7.36 0,3.776 -2.047997,6.656 -1.984,2.88 -5.76,4.48 -3.712,1.6 -8.832,1.6 z"
         style="font-size:64px;font-family:Nunito, Nunito_MSFontService, sans-serif"
         id="path1021" />
    </g>
    <path
       d="m 1160,484 c 0,-13.807 11.19,-25 25,-25 h 194 c 13.81,0 25,11.193 25,25 v 99.999 c 0,13.808 -11.19,25.001 -25,25.001 h -194 c -13.81,0 -25,-11.193 -25,-25.001 z"
       stroke="#000000"
       stroke-width="10.3125"
       stroke-miterlimit="8"
       fill="#ffffff"
       fill-rule="evenodd"
       id="path161" />
    <g
       aria-label="IDS"
       transform="translate(1229.69,552)"
       id="text163"
       style="font-size:64px;font-family:Nunito, Nunito_MSFontService, sans-serif">
      <path
         d="m 8.192,0.448 q -2.624,0 -2.624,-2.752 v -40.512 q 0,-2.752 2.624,-2.752 2.624,0 2.624,2.752 v 40.512 q 0,2.752 -2.624,2.752 z"
         style="font-size:64px;font-family:Nunito, Nunito_MSFontService, sans-serif"
         id="path1024" />
      <path
         d="m 24.895998,0 q -2.88,0 -2.88,-2.88 v -39.36 q 0,-2.88 2.88,-2.88 h 12.352 q 10.944,0 16.896,5.824 5.952,5.76 5.952,16.704 0,10.944 -5.952,16.768 Q 48.191998,0 37.247998,0 Z m 2.368,-4.48 h 9.6 q 17.664,0 17.664,-18.112 0,-18.048 -17.664,-18.048 h -9.6 z"
         style="font-size:64px;font-family:Nunito, Nunito_MSFontService, sans-serif"
         id="path1026" />
      <path
         d="m 84.095913,0.576 q -4.608,0 -8.704,-1.088 -4.032,-1.152 -6.976,-3.328 -1.024,-0.704 -1.216,-1.664 -0.192,-0.96 0.192,-1.792 0.448,-0.832 1.28,-1.088 0.832,-0.32 1.92,0.384 2.88,2.112 6.144,3.008 3.264,0.896 7.36,0.896 5.76,0 8.512,-2.112 2.816,-2.176 2.816,-5.696 0,-2.816 -2.048,-4.48 -1.984,-1.664 -6.72,-2.624 l -6.656,-1.344 q -6.016,-1.28 -9.024,-4.16 -2.944,-2.944 -2.944,-7.808 0,-4.032 2.048,-7.04 2.112,-3.008 5.824,-4.672 3.712,-1.664 8.576,-1.664 4.032,0 7.488,1.152 3.52,1.088 6.336,3.328 0.896,0.704 1.024,1.664 0.192,0.896 -0.256,1.664 -0.448,0.768 -1.28,1.024 -0.832,0.192 -1.984,-0.512 -2.56,-1.984 -5.376,-2.816 -2.752,-0.832 -6.016,-0.832 -5.056,0 -8.064,2.368 -3.008,2.304 -3.008,6.144 0,3.072 1.856,4.864 1.92,1.792 6.208,2.624 l 6.656,1.408 q 6.464,1.344 9.536,4.096 3.135997,2.688 3.135997,7.36 0,3.776 -2.047997,6.656 -1.984,2.88 -5.76,4.48 -3.712,1.6 -8.832,1.6 z"
         style="font-size:64px;font-family:Nunito, Nunito_MSFontService, sans-serif"
         id="path1028" />
    </g>
    <path
       d="m 968,1014 c 0,-13.81 11.193,-25 25,-25 h 194 c 13.81,0 25,11.19 25,25 v 100 c 0,13.81 -11.19,25 -25,25 H 993 c -13.807,0 -25,-11.19 -25,-25 z"
       stroke="#000000"
       stroke-width="10.3125"
       stroke-miterlimit="8"
       fill="#ffffff"
       fill-rule="evenodd"
       id="path165" />
    <g
       aria-label="IDS"
       transform="translate(1037.8,1082)"
       id="text167"
       style="font-size:64px;font-family:Nunito, Nunito_MSFontService, sans-serif">
      <path
         d="m 8.192,0.448 q -2.624,0 -2.624,-2.752 v -40.512 q 0,-2.752 2.624,-2.752 2.624,0 2.624,2.752 v 40.512 q 0,2.752 -2.624,2.752 z"
         style="font-size:64px;font-family:Nunito, Nunito_MSFontService, sans-serif"
         id="path1031" />
      <path
         d="m 24.895998,0 q -2.88,0 -2.88,-2.88 v -39.36 q 0,-2.88 2.88,-2.88 h 12.352 q 10.944,0 16.896,5.824 5.952,5.76 5.952,16.704 0,10.944 -5.952,16.768 Q 48.191998,0 37.247998,0 Z m 2.368,-4.48 h 9.6 q 17.664,0 17.664,-18.112 0,-18.048 -17.664,-18.048 h -9.6 z"
         style="font-size:64px;font-family:Nunito, Nunito_MSFontService, sans-serif"
         id="path1033" />
      <path
         d="m 84.095913,0.576 q -4.608,0 -8.704,-1.088 -4.032,-1.152 -6.976,-3.328 -1.024,-0.704 -1.216,-1.664 -0.192,-0.96 0.192,-1.792 0.448,-0.832 1.28,-1.088 0.832,-0.32 1.92,0.384 2.88,2.112 6.144,3.008 3.264,0.896 7.36,0.896 5.76,0 8.512,-2.112 2.816,-2.176 2.816,-5.696 0,-2.816 -2.048,-4.48 -1.984,-1.664 -6.72,-2.624 l -6.656,-1.344 q -6.016,-1.28 -9.024,-4.16 -2.944,-2.944 -2.944,-7.808 0,-4.032 2.048,-7.04 2.112,-3.008 5.824,-4.672 3.712,-1.664 8.576,-1.664 4.032,0 7.488,1.152 3.52,1.088 6.336,3.328 0.896,0.704 1.024,1.664 0.192,0.896 -0.256,1.664 -0.448,0.768 -1.28,1.024 -0.832,0.192 -1.984,-0.512 -2.56,-1.984 -5.376,-2.816 -2.752,-0.832 -6.016,-0.832 -5.056,0 -8.064,2.368 -3.008,2.304 -3.008,6.144 0,3.072 1.856,4.864 1.92,1.792 6.208,2.624 l 6.656,1.408 q 6.464,1.344 9.536,4.096 3.135997,2.688 3.135997,7.36 0,3.776 -2.047997,6.656 -1.984,2.88 -5.76,4.48 -3.712,1.6 -8.832,1.6 z"
         style="font-size:64px;font-family:Nunito, Nunito_MSFontService, sans-serif"
         id="path1035" />
    </g>
    <path
       d="m 1703.49,1583.41 -476.2,-426.07 4.58,-5.12 476.2,426.07 z m -479.66,-415.33 -11.33,-28.58 29.66,8.09 z"
       id="path169" />
    <path
       d="m 1825.02,1507.56 -533.55,-876.701 5.88,-3.574 533.55,876.705 z m -539.97,-867.42 -2.55,-30.64 26.04,16.343 z"
       id="path171" />
    <path
       d="M 0.865706,-3.3267 265.536,65.5482 263.804,72.2016 -0.865706,3.3267 Z M 263.697,54.4138 l 23.151,20.2325 -30.076,6.3811 z"
       transform="matrix(1,0,0,-1,1949.5,1581.15)"
       id="path173" />
  </g>
</svg>
