<?xml version="1.0" encoding="UTF-8" standalone="no"?>
<svg
   width="1842"
   height="299"
   overflow="hidden"
   version="1.1"
   id="svg31"
   sodipodi:docname="main_components_of_ids.svg"
   inkscape:version="1.1 (c68e22c387, 2021-05-23)"
   xmlns:inkscape="http://www.inkscape.org/namespaces/inkscape"
   xmlns:sodipodi="http://sodipodi.sourceforge.net/DTD/sodipodi-0.dtd"
   xmlns="http://www.w3.org/2000/svg"
   xmlns:svg="http://www.w3.org/2000/svg">
  <sodipodi:namedview
     id="namedview33"
     pagecolor="#ffffff"
     bordercolor="#666666"
     borderopacity="1.0"
     inkscape:pageshadow="2"
     inkscape:pageopacity="0.0"
     inkscape:pagecheckerboard="0"
     showgrid="false"
     inkscape:zoom="0.68946797"
     inkscape:cx="920.2748"
     inkscape:cy="150.11575"
     inkscape:window-width="1920"
     inkscape:window-height="1001"
     inkscape:window-x="-9"
     inkscape:window-y="-9"
     inkscape:window-maximized="1"
     inkscape:current-layer="svg31" />
  <defs
     id="defs5">
    <clipPath
       id="clip0">
      <rect
         x="829"
         y="895"
         width="1842"
         height="299"
         id="rect2" />
    </clipPath>
  </defs>
  <g
     clip-path="url(#clip0)"
     transform="translate(-829,-895)"
     id="g29">
    <path
       d="M 834,948.168 C 834,921.565 855.565,900 882.168,900 h 472.662 c 26.6,0 48.17,21.565 48.17,48.168 v 192.662 c 0,26.6 -21.57,48.17 -48.17,48.17 H 882.168 C 855.565,1189 834,1167.43 834,1140.83 Z"
       stroke="#a5a5a5"
       stroke-width="10.3125"
       stroke-miterlimit="8"
       fill="#ffffff"
       fill-rule="evenodd"
       id="path7" />
    <g
       aria-label="Datacollection"
       transform="translate(1039.36,1021)"
       id="text13"
       style="font-size:73px;font-family:Nunito, Nunito_MSFontService, sans-serif">
      <path
         d="M 9.636,0 Q 6.351,0 6.351,-3.285 V -48.18 q 0,-3.285 3.285,-3.285 h 14.089 q 12.483,0 19.272,6.643 6.789,6.57 6.789,19.053 0,12.483 -6.789,19.126 Q 36.208,0 23.725,0 Z m 2.701,-5.11 h 10.95 q 20.148,0 20.148,-20.659 0,-20.586 -20.148,-20.586 h -10.95 z"
         style="font-size:73px;font-family:Nunito, Nunito_MSFontService, sans-serif"
         id="path850" />
      <path
         d="m 70.882901,0.657 q -3.65,0 -6.57,-1.387 -2.847,-1.46 -4.526,-3.942 -1.679,-2.482 -1.679,-5.548 0,-3.869 1.971,-6.132 2.044,-2.263 6.643,-3.212 4.672,-1.022 12.702,-1.022 h 2.336 v -2.263 q 0,-4.526 -1.898,-6.497 -1.825,-2.044 -5.913,-2.044 -2.555,0 -5.183,0.657 -2.555,0.657 -5.329,2.117 -1.241,0.657 -2.117,0.292 -0.803,-0.438 -1.168,-1.314 -0.292,-0.949 0,-1.898 0.365,-1.022 1.46,-1.533 3.139,-1.606 6.278,-2.336 3.212,-0.73 6.059,-0.73 6.862,0 10.147,3.358 3.358,3.358 3.358,10.439 v 19.783 q 0,3.066 -2.701,3.066 -2.847,0 -2.847,-3.066 v -3.577 q -1.387,3.139 -4.307,4.964 -2.847,1.825 -6.716,1.825 z m 0.949,-4.453 q 4.38,0 7.154,-2.993 2.774,-3.066 2.774,-7.738 v -2.19 h -2.263 q -5.913,0 -9.344,0.584 -3.358,0.511 -4.745,1.898 -1.314,1.314 -1.314,3.65 0,2.993 2.044,4.891 2.117,1.898 5.694,1.898 z"
         style="font-size:73px;font-family:Nunito, Nunito_MSFontService, sans-serif"
         id="path852" />
      <path
         d="m 112.63881,0.657 q -6.278,0 -9.417,-3.285 -3.139,-3.358 -3.139,-9.636 v -18.615 h -4.890998 q -2.555,0 -2.555,-2.336 0,-2.263 2.555,-2.263 h 4.890998 v -8.395 q 0,-2.993 2.993,-2.993 2.92,0 2.92,2.993 v 8.395 h 9.198 q 2.555,0 2.555,2.263 0,2.336 -2.555,2.336 h -9.198 v 18.031 q 0,4.161 1.752,6.351 1.752,2.117 5.694,2.117 1.387,0 2.336,-0.292 0.949,-0.292 1.679,-0.292 0.657,-0.073 1.095,0.438 0.438,0.511 0.438,1.752 0,0.876 -0.365,1.606 -0.292,0.73 -1.095,1.022 -0.876,0.292 -2.336,0.511 -1.387,0.292 -2.555,0.292 z"
         style="font-size:73px;font-family:Nunito, Nunito_MSFontService, sans-serif"
         id="path854" />
      <path
         d="m 135.1227,0.657 q -3.65,0 -6.57,-1.387 -2.847,-1.46 -4.526,-3.942 -1.679,-2.482 -1.679,-5.548 0,-3.869 1.971,-6.132 2.044,-2.263 6.643,-3.212 4.672,-1.022 12.702,-1.022 h 2.336 v -2.263 q 0,-4.526 -1.898,-6.497 -1.825,-2.044 -5.913,-2.044 -2.555,0 -5.183,0.657 -2.555,0.657 -5.329,2.117 -1.241,0.657 -2.117,0.292 -0.803,-0.438 -1.168,-1.314 -0.292,-0.949 0,-1.898 0.365,-1.022 1.46,-1.533 3.139,-1.606 6.278,-2.336 3.212,-0.73 6.059,-0.73 6.862,0 10.147,3.358 3.358,3.358 3.358,10.439 v 19.783 q 0,3.066 -2.701,3.066 -2.847,0 -2.847,-3.066 v -3.577 q -1.387,3.139 -4.307,4.964 -2.847,1.825 -6.716,1.825 z m 0.949,-4.453 q 4.38,0 7.154,-2.993 2.774,-3.066 2.774,-7.738 v -2.19 h -2.263 q -5.913,0 -9.344,0.584 -3.358,0.511 -4.745,1.898 -1.314,1.314 -1.314,3.65 0,2.993 2.044,4.891 2.117,1.898 5.694,1.898 z"
         style="font-size:73px;font-family:Nunito, Nunito_MSFontService, sans-serif"
         id="path856" />
      <path
         d="m -58.476401,88.657 q -5.329,0 -9.198,-2.263 -3.869,-2.336 -5.986,-6.497 -2.044,-4.234 -2.044,-9.855 0,-8.468 4.599,-13.286 4.599,-4.891 12.629,-4.891 2.628,0 5.475,0.876 2.847,0.803 5.183,2.701 1.241,0.876 1.022,2.19 -0.146,1.314 -1.241,1.971 -1.022,0.657 -2.409,-0.292 -1.971,-1.46 -3.942,-2.044 -1.898,-0.584 -3.723,-0.584 -5.548,0 -8.541,3.504 -2.993,3.431 -2.993,9.928 0,6.351 2.993,10.074 2.993,3.65 8.541,3.65 1.825,0 3.723,-0.584 1.971,-0.584 3.942,-2.044 1.387,-0.949 2.409,-0.219 1.022,0.657 1.095,1.971 0.146,1.314 -1.022,2.117 -2.336,1.898 -5.11,2.774 -2.774,0.803 -5.402,0.803 z"
         id="path858" />
      <path
         d="m -25.699465,88.657 q -5.183,0 -8.979,-2.263 -3.796,-2.263 -5.913,-6.351 -2.044,-4.161 -2.044,-9.782 0,-5.621 2.044,-9.709 2.117,-4.161 5.913,-6.424 3.796,-2.263 8.979,-2.263 5.11,0 8.906,2.263 3.869,2.263 5.913,6.424 2.1169996,4.088 2.1169996,9.709 0,5.621 -2.1169996,9.782 -2.044,4.088 -5.913,6.351 -3.796,2.263 -8.906,2.263 z m 0,-4.745 q 4.964,0 7.957,-3.504 2.993,-3.577 2.993,-10.147 0,-6.643 -2.993,-10.147 -2.993,-3.504 -7.957,-3.504 -5.037,0 -8.03,3.504 -2.92,3.504 -2.92,10.147 0,6.57 2.92,10.147 2.993,3.504 8.03,3.504 z"
         id="path860" />
      <path
         d="m 10.946521,88.657 q -5.2560004,0 -8.0300004,-3.139 -2.77400003,-3.212 -2.77400003,-9.271 v -37.23 q 0,-2.993 2.92000003,-2.993 2.993,0 2.993,2.993 v 36.792 q 0,7.811 6.2050004,7.811 0.657,0 1.168,-0.073 0.511,-0.073 1.022,-0.073 0.803,-0.073 1.095,0.365 0.365,0.438 0.365,1.752 0,2.482 -2.482,2.847 -0.584,0.146 -1.241,0.146 -0.657,0.073 -1.241,0.073 z"
         id="path862" />
      <path
         d="m 32.554484,88.657 q -5.256,0 -8.03,-3.139 -2.774,-3.212 -2.774,-9.271 v -37.23 q 0,-2.993 2.92,-2.993 2.993,0 2.993,2.993 v 36.792 q 0,7.811 6.205,7.811 0.657,0 1.168,-0.073 0.511,-0.073 1.022,-0.073 0.803,-0.073 1.095,0.365 0.365,0.438 0.365,1.752 0,2.482 -2.482,2.847 -0.584,0.146 -1.241,0.146 -0.657,0.073 -1.241,0.073 z"
         id="path864" />
      <path
         d="m 58.980366,88.657 q -8.395,0 -13.286,-4.891 -4.891,-4.964 -4.891,-13.432 0,-5.475 2.19,-9.636 2.19,-4.234 5.986,-6.497 3.869,-2.336 8.906,-2.336 7.227,0 11.315,4.672 4.088,4.599 4.088,12.702 0,2.263 -2.555,2.263 h -24.163 q 0.292,6.059 3.504,9.271 3.212,3.139 8.906,3.139 2.409,0 4.891,-0.584 2.482,-0.657 4.818,-2.263 1.679,-1.095 2.774,-0.438 1.168,0.657 1.168,2.044 0.073,1.314 -1.46,2.336 -2.409,1.752 -5.767,2.701 -3.285,0.949 -6.424,0.949 z m -0.949,-32.412 q -5.037,0 -7.957,3.139 -2.92,3.139 -3.431,8.249 h 21.535 q -0.219,-5.402 -2.847,-8.395 -2.555,-2.993 -7.3,-2.993 z"
         id="path866" />
      <path
         d="m 96.867334,88.657 q -5.329,0 -9.198,-2.263 -3.869,-2.336 -5.986,-6.497 -2.044,-4.234 -2.044,-9.855 0,-8.468 4.599,-13.286 4.599,-4.891 12.629,-4.891 2.628,0 5.474996,0.876 2.847,0.803 5.183,2.701 1.241,0.876 1.022,2.19 -0.146,1.314 -1.241,1.971 -1.022,0.657 -2.409,-0.292 -1.971,-1.46 -3.942,-2.044 -1.897996,-0.584 -3.722996,-0.584 -5.548,0 -8.541,3.504 -2.993,3.431 -2.993,9.928 0,6.351 2.993,10.074 2.993,3.65 8.541,3.65 1.825,0 3.722996,-0.584 1.971,-0.584 3.942,-2.044 1.387,-0.949 2.409,-0.219 1.022,0.657 1.095,1.971 0.146,1.314 -1.022,2.117 -2.336,1.898 -5.11,2.774 -2.773996,0.803 -5.401996,0.803 z"
         id="path868" />
      <path
         d="m 129.86328,88.657 q -6.278,0 -9.417,-3.285 -3.139,-3.358 -3.139,-9.636 V 57.121 h -4.891 q -2.555,0 -2.555,-2.336 0,-2.263 2.555,-2.263 h 4.891 v -8.395 q 0,-2.993 2.993,-2.993 2.92,0 2.92,2.993 v 8.395 h 9.198 q 2.555,0 2.555,2.263 0,2.336 -2.555,2.336 h -9.198 v 18.031 q 0,4.161 1.752,6.351 1.752,2.117 5.694,2.117 1.387,0 2.336,-0.292 0.949,-0.292 1.679,-0.292 0.657,-0.073 1.095,0.438 0.438,0.511 0.438,1.752 0,0.876 -0.365,1.606 -0.292,0.73 -1.095,1.022 -0.876,0.292 -2.336,0.511 -1.387,0.292 -2.555,0.292 z"
         id="path870" />
      <path
         d="m 144.53608,43.981 q -3.869,0 -3.869,-3.65 0,-3.577 3.869,-3.577 3.869,0 3.869,3.577 0,3.65 -3.869,3.65 z m 0,44.384 q -2.92,0 -2.92,-3.212 V 55.296 q 0,-3.139 2.92,-3.139 2.993,0 2.993,3.139 v 29.857 q 0,3.212 -2.993,3.212 z"
         id="path872" />
      <path
         d="m 173.29796,88.657 q -5.183,0 -8.979,-2.263 -3.796,-2.263 -5.913,-6.351 -2.044,-4.161 -2.044,-9.782 0,-5.621 2.044,-9.709 2.117,-4.161 5.913,-6.424 3.796,-2.263 8.979,-2.263 5.11,0 8.906,2.263 3.869,2.263 5.913,6.424 2.117,4.088 2.117,9.709 0,5.621 -2.117,9.782 -2.044,4.088 -5.913,6.351 -3.796,2.263 -8.906,2.263 z m 0,-4.745 q 4.964,0 7.957,-3.504 2.993,-3.577 2.993,-10.147 0,-6.643 -2.993,-10.147 -2.993,-3.504 -7.957,-3.504 -5.037,0 -8.03,3.504 -2.92,3.504 -2.92,10.147 0,6.57 2.92,10.147 2.993,3.504 8.03,3.504 z"
         id="path874" />
      <path
         d="m 203.83301,88.511 q -2.92,0 -2.92,-3.066 V 55.004 q 0,-2.993 2.847,-2.993 2.92,0 2.92,2.993 v 3.577 q 1.752,-3.358 4.964,-5.037 3.212,-1.679 7.227,-1.679 12.629,0 12.629,14.016 v 19.564 q 0,3.066 -2.92,3.066 -2.993,0 -2.993,-3.066 V 66.246 q 0,-4.964 -1.971,-7.227 -1.898,-2.336 -6.132,-2.336 -4.891,0 -7.811,3.066 -2.847,2.993 -2.847,8.03 v 17.666 q 0,3.066 -2.993,3.066 z"
         id="path876" />
    </g>
    <path
       d="M 1465,948.168 C 1465,921.565 1486.57,900 1513.17,900 h 472.66 c 26.6,0 48.17,21.565 48.17,48.168 v 192.662 c 0,26.6 -21.57,48.17 -48.17,48.17 h -472.66 c -26.6,0 -48.17,-21.57 -48.17,-48.17 z"
       stroke="#a5a5a5"
       stroke-width="10.3125"
       stroke-miterlimit="8"
       fill="#ffffff"
       fill-rule="evenodd"
       id="path15" />
    <g
       aria-label="Vectorization"
       transform="translate(1533.88,1065)"
       id="text17"
       style="font-size:73px;font-family:Nunito, Nunito_MSFontService, sans-serif">
      <path
         d="m 25.185,0.511 q -2.555,0 -3.65,-2.628 L 1.46,-48.034 q -0.803,-1.825 0.073,-2.847 0.876,-1.095 2.409,-1.095 1.314,0 1.971,0.657 0.73,0.584 1.241,1.752 L 25.258,-7.592 43.289,-49.64 q 0.511,-1.168 1.241,-1.752 0.73,-0.584 2.044,-0.584 1.533,0 2.263,1.168 0.73,1.095 0,2.774 L 28.762,-2.117 q -0.584,1.314 -1.387,1.971 -0.803,0.657 -2.19,0.657 z"
         style="font-size:73px;font-family:Nunito, Nunito_MSFontService, sans-serif"
         id="path879" />
      <path
         d="m 67.524937,0.657 q -8.395,0 -13.286,-4.891 -4.891,-4.964 -4.891,-13.432 0,-5.475 2.19,-9.636 2.19,-4.234 5.986,-6.497 3.869,-2.336 8.906,-2.336 7.227,0 11.315,4.672 4.088,4.599 4.088,12.702 0,2.263 -2.555,2.263 h -24.163 q 0.292,6.059 3.504,9.271 3.212,3.139 8.906,3.139 2.409,0 4.891,-0.584 2.482,-0.657 4.818,-2.263 1.679,-1.095 2.774,-0.438 1.168,0.657 1.168,2.044 0.073,1.314 -1.46,2.336 -2.409,1.752 -5.767,2.701 -3.285,0.949 -6.424,0.949 z m -0.949,-32.412 q -5.037,0 -7.957,3.139 -2.92,3.139 -3.431,8.249 h 21.535 q -0.219,-5.402 -2.847,-8.395 -2.555,-2.993 -7.3,-2.993 z"
         style="font-size:73px;font-family:Nunito, Nunito_MSFontService, sans-serif"
         id="path881" />
      <path
         d="m 105.4119,0.657 q -5.329,0 -9.197995,-2.263 -3.869,-2.336 -5.986,-6.497 -2.044,-4.234 -2.044,-9.855 0,-8.468 4.599,-13.286 4.599,-4.891 12.628995,-4.891 2.628,0 5.475,0.876 2.847,0.803 5.183,2.701 1.241,0.876 1.022,2.19 -0.146,1.314 -1.241,1.971 -1.022,0.657 -2.409,-0.292 -1.971,-1.46 -3.942,-2.044 -1.898,-0.584 -3.723,-0.584 -5.548,0 -8.540995,3.504 -2.993,3.431 -2.993,9.928 0,6.351 2.993,10.074 2.992995,3.65 8.540995,3.65 1.825,0 3.723,-0.584 1.971,-0.584 3.942,-2.044 1.387,-0.949 2.409,-0.219 1.022,0.657 1.095,1.971 0.146,1.314 -1.022,2.117 -2.336,1.898 -5.11,2.774 -2.774,0.803 -5.402,0.803 z"
         style="font-size:73px;font-family:Nunito, Nunito_MSFontService, sans-serif"
         id="path883" />
      <path
         d="m 138.40786,0.657 q -6.278,0 -9.417,-3.285 -3.139,-3.358 -3.139,-9.636 v -18.615 h -4.891 q -2.555,0 -2.555,-2.336 0,-2.263 2.555,-2.263 h 4.891 v -8.395 q 0,-2.993 2.993,-2.993 2.92,0 2.92,2.993 v 8.395 h 9.198 q 2.555,0 2.555,2.263 0,2.336 -2.555,2.336 h -9.198 v 18.031 q 0,4.161 1.752,6.351 1.752,2.117 5.694,2.117 1.387,0 2.336,-0.292 0.949,-0.292 1.679,-0.292 0.657,-0.073 1.095,0.438 0.438,0.511 0.438,1.752 0,0.876 -0.365,1.606 -0.292,0.73 -1.095,1.022 -0.876,0.292 -2.336,0.511 -1.387,0.292 -2.555,0.292 z"
         style="font-size:73px;font-family:Nunito, Nunito_MSFontService, sans-serif"
         id="path885" />
      <path
         d="m 164.10366,0.657 q -5.183,0 -8.979,-2.263 -3.796,-2.263 -5.913,-6.351 -2.044,-4.161 -2.044,-9.782 0,-5.621 2.044,-9.709 2.117,-4.161 5.913,-6.424 3.796,-2.263 8.979,-2.263 5.11,0 8.906,2.263 3.869,2.263 5.913,6.424 2.117,4.088 2.117,9.709 0,5.621 -2.117,9.782 -2.044,4.088 -5.913,6.351 -3.796,2.263 -8.906,2.263 z m 0,-4.745 q 4.964,0 7.957,-3.504 2.993,-3.577 2.993,-10.147 0,-6.643 -2.993,-10.147 -2.993,-3.504 -7.957,-3.504 -5.037,0 -8.03,3.504 -2.92,3.504 -2.92,10.147 0,6.57 2.92,10.147 2.993,3.504 8.03,3.504 z"
         style="font-size:73px;font-family:Nunito, Nunito_MSFontService, sans-serif"
         id="path887" />
      <path
         d="m 192.93864,0.511 q -2.993,0 -2.993,-3.066 v -30.441 q 0,-2.993 2.847,-2.993 2.92,0 2.92,2.993 v 3.869 q 1.46,-3.358 4.526,-5.11 3.066,-1.825 7.3,-1.971 2.336,-0.219 2.482,2.336 0.219,2.555 -2.628,2.847 l -1.168,0.146 q -5.037,0.438 -7.665,3.212 -2.628,2.701 -2.628,7.446 v 17.666 q 0,3.066 -2.993,3.066 z"
         style="font-size:73px;font-family:Nunito, Nunito_MSFontService, sans-serif"
         id="path889" />
      <path
         d="m 218.99963,-44.019 q -3.869,0 -3.869,-3.65 0,-3.577 3.869,-3.577 3.869,0 3.869,3.577 0,3.65 -3.869,3.65 z m 0,44.384 q -2.92,0 -2.92,-3.212 v -29.857 q 0,-3.139 2.92,-3.139 2.993,0 2.993,3.139 v 29.857 q 0,3.212 -2.993,3.212 z"
         style="font-size:73px;font-family:Nunito, Nunito_MSFontService, sans-serif"
         id="path891" />
      <path
         d="m 233.67251,0 q -1.898,0 -2.336,-1.606 -0.438,-1.606 0.949,-3.285 l 19.491,-25.988 h -18.396 q -2.409,0 -2.409,-2.336 0,-2.263 2.409,-2.263 h 22.411 q 2.19,0 2.701,1.606 0.511,1.533 -0.803,3.139 l -19.71,26.134 h 19.272 q 2.409,0 2.409,2.263 0,2.336 -2.409,2.336 z"
         style="font-size:73px;font-family:Nunito, Nunito_MSFontService, sans-serif"
         id="path893" />
      <path
         d="m 277.6184,0.657 q -3.65,0 -6.57,-1.387 -2.847,-1.46 -4.526,-3.942 -1.679,-2.482 -1.679,-5.548 0,-3.869 1.971,-6.132 2.044,-2.263 6.643,-3.212 4.672,-1.022 12.702,-1.022 h 2.336 v -2.263 q 0,-4.526 -1.898,-6.497 -1.825,-2.044 -5.913,-2.044 -2.555,0 -5.183,0.657 -2.555,0.657 -5.329,2.117 -1.241,0.657 -2.117,0.292 -0.803,-0.438 -1.168,-1.314 -0.292,-0.949 0,-1.898 0.365,-1.022 1.46,-1.533 3.139,-1.606 6.278,-2.336 3.212,-0.73 6.059,-0.73 6.862,0 10.147,3.358 3.358,3.358 3.358,10.439 v 19.783 q 0,3.066 -2.701,3.066 -2.847,0 -2.847,-3.066 v -3.577 q -1.387,3.139 -4.307,4.964 -2.847,1.825 -6.716,1.825 z m 0.949,-4.453 q 4.38,0 7.154,-2.993 2.774,-3.066 2.774,-7.738 v -2.19 h -2.263 q -5.913,0 -9.344,0.584 -3.358,0.511 -4.745,1.898 -1.314,1.314 -1.314,3.65 0,2.993 2.044,4.891 2.117,1.898 5.694,1.898 z"
         style="font-size:73px;font-family:Nunito, Nunito_MSFontService, sans-serif"
         id="path895" />
      <path
         d="m 319.37431,0.657 q -6.278,0 -9.417,-3.285 -3.139,-3.358 -3.139,-9.636 v -18.615 h -4.891 q -2.555,0 -2.555,-2.336 0,-2.263 2.555,-2.263 h 4.891 v -8.395 q 0,-2.993 2.993,-2.993 2.92,0 2.92,2.993 v 8.395 h 9.198 q 2.555,0 2.555,2.263 0,2.336 -2.555,2.336 h -9.198 v 18.031 q 0,4.161 1.752,6.351 1.752,2.117 5.694,2.117 1.387,0 2.336,-0.292 0.949,-0.292 1.679,-0.292 0.657,-0.073 1.095,0.438 0.438,0.511 0.438,1.752 0,0.876 -0.365,1.606 -0.292,0.73 -1.095,1.022 -0.876,0.292 -2.336,0.511 -1.387,0.292 -2.555,0.292 z"
         style="font-size:73px;font-family:Nunito, Nunito_MSFontService, sans-serif"
         id="path897" />
      <path
         d="m 334.0471,-44.019 q -3.869,0 -3.869,-3.65 0,-3.577 3.869,-3.577 3.869,0 3.869,3.577 0,3.65 -3.869,3.65 z m 0,44.384 q -2.92,0 -2.92,-3.212 v -29.857 q 0,-3.139 2.92,-3.139 2.993,0 2.993,3.139 v 29.857 q 0,3.212 -2.993,3.212 z"
         style="font-size:73px;font-family:Nunito, Nunito_MSFontService, sans-serif"
         id="path899" />
      <path
         d="m 362.80898,0.657 q -5.183,0 -8.979,-2.263 -3.796,-2.263 -5.913,-6.351 -2.044,-4.161 -2.044,-9.782 0,-5.621 2.044,-9.709 2.117,-4.161 5.913,-6.424 3.796,-2.263 8.979,-2.263 5.11,0 8.906,2.263 3.869,2.263 5.913,6.424 2.117,4.088 2.117,9.709 0,5.621 -2.117,9.782 -2.044,4.088 -5.913,6.351 -3.796,2.263 -8.906,2.263 z m 0,-4.745 q 4.964,0 7.957,-3.504 2.993,-3.577 2.993,-10.147 0,-6.643 -2.993,-10.147 -2.993,-3.504 -7.957,-3.504 -5.037,0 -8.03,3.504 -2.92,3.504 -2.92,10.147 0,6.57 2.92,10.147 2.993,3.504 8.03,3.504 z"
         style="font-size:73px;font-family:Nunito, Nunito_MSFontService, sans-serif"
         id="path901" />
      <path
         d="m 391.57097,0.511 q -2.92,0 -2.92,-3.066 v -30.441 q 0,-2.993 2.847,-2.993 2.92,0 2.92,2.993 v 3.577 q 1.752,-3.358 4.964,-5.037 3.212,-1.679 7.227,-1.679 12.629,0 12.629,14.016 v 19.564 q 0,3.066 -2.92,3.066 -2.993,0 -2.993,-3.066 v -19.199 q 0,-4.964 -1.971,-7.227 -1.898,-2.336 -6.132,-2.336 -4.891,0 -7.811,3.066 -2.847,2.993 -2.847,8.03 v 17.666 q 0,3.066 -2.993,3.066 z"
         style="font-size:73px;font-family:Nunito, Nunito_MSFontService, sans-serif"
         id="path903" />
    </g>
    <path
       d="M 2096,948.168 C 2096,921.565 2117.57,900 2144.17,900 h 473.66 c 26.6,0 48.17,21.565 48.17,48.168 v 192.662 c 0,26.6 -21.57,48.17 -48.17,48.17 h -473.66 c -26.6,0 -48.17,-21.57 -48.17,-48.17 z"
       stroke="#a5a5a5"
       stroke-width="10.3125"
       stroke-miterlimit="8"
       fill="#ffffff"
       fill-rule="evenodd"
       id="path19" />
    <g
       aria-label="Classification Engine"
       transform="translate(2161.61,1021)"
       id="text23"
       style="font-size:73px;font-family:Nunito, Nunito_MSFontService, sans-serif">
      <path
         d="m 28.616,0.657 q -7.592,0 -12.994,-3.212 Q 10.22,-5.767 7.3,-11.68 4.453,-17.593 4.453,-25.769 q 0,-8.103 2.847,-14.016 2.92,-5.913 8.322,-9.125 5.402,-3.212 12.994,-3.212 4.526,0 8.614,1.314 4.088,1.314 7.081,3.723 1.241,0.876 1.387,2.044 0.219,1.168 -0.365,2.117 -0.584,0.876 -1.679,1.168 -1.022,0.219 -2.336,-0.73 -5.183,-4.161 -12.556,-4.161 -8.687,0 -13.286,5.475 -4.599,5.475 -4.599,15.403 0,10.001 4.599,15.476 4.599,5.475 13.286,5.475 7.373,0 12.702,-4.234 1.314,-0.876 2.336,-0.657 1.095,0.219 1.606,1.095 0.584,0.876 0.438,1.971 -0.146,1.095 -1.241,1.971 -3.139,2.628 -7.227,4.015 -4.088,1.314 -8.76,1.314 z"
         style="font-size:73px;font-family:Nunito, Nunito_MSFontService, sans-serif"
         id="path906" />
      <path
         d="m 65.480883,0.657 q -5.256,0 -8.03,-3.139 -2.774,-3.212 -2.774,-9.271 v -37.23 q 0,-2.993 2.92,-2.993 2.993,0 2.993,2.993 v 36.792 q 0,7.811 6.205,7.811 0.657,0 1.168,-0.073 0.511,-0.073 1.022,-0.073 0.803,-0.073 1.095,0.365 0.365,0.438 0.365,1.752 0,2.482 -2.482,2.847 -0.584,0.146 -1.241,0.146 -0.657,0.073 -1.241,0.073 z"
         style="font-size:73px;font-family:Nunito, Nunito_MSFontService, sans-serif"
         id="path908" />
      <path
         d="m 87.453847,0.657 q -3.65,0 -6.57,-1.387 -2.847,-1.46 -4.526,-3.942 -1.679,-2.482 -1.679,-5.548 0,-3.869 1.971,-6.132 2.044,-2.263 6.643,-3.212 4.672,-1.022 12.702,-1.022 h 2.336 v -2.263 q 0,-4.526 -1.898,-6.497 -1.825,-2.044 -5.913,-2.044 -2.555,0 -5.183,0.657 -2.555,0.657 -5.329,2.117 -1.241,0.657 -2.117,0.292 -0.803,-0.438 -1.168,-1.314 -0.292,-0.949 0,-1.898 0.365,-1.022 1.46,-1.533 3.139,-1.606 6.278,-2.336 3.212,-0.73 6.059,-0.73 6.862,0 10.147003,3.358 3.358,3.358 3.358,10.439 v 19.783 q 0,3.066 -2.701,3.066 -2.847003,0 -2.847003,-3.066 v -3.577 q -1.387,3.139 -4.307,4.964 -2.847,1.825 -6.716,1.825 z m 0.949,-4.453 q 4.38,0 7.154,-2.993 2.774,-3.066 2.774,-7.738 v -2.19 h -2.263 q -5.913,0 -9.344,0.584 -3.358,0.511 -4.745,1.898 -1.314,1.314 -1.314,3.65 0,2.993 2.044,4.891 2.117,1.898 5.694,1.898 z"
         style="font-size:73px;font-family:Nunito, Nunito_MSFontService, sans-serif"
         id="path910" />
      <path
         d="m 126.94676,0.657 q -3.285,0 -6.643,-0.803 -3.285,-0.876 -6.132,-2.774 -1.314,-0.803 -1.314,-2.044 0.073,-1.314 1.022,-2.044 0.949,-0.73 2.409,0 2.847,1.752 5.475,2.482 2.701,0.657 5.329,0.657 4.161,0 6.278,-1.533 2.117,-1.533 2.117,-4.161 0,-2.044 -1.387,-3.212 -1.387,-1.241 -4.38,-1.898 l -6.643,-1.46 q -9.052,-1.971 -9.052,-9.344 0,-4.818 3.796,-7.738 3.869,-2.92 10.074,-2.92 3.139,0 6.059,0.876 2.92,0.803 5.256,2.628 1.241,0.876 1.095,2.117 -0.146,1.241 -1.168,1.971 -0.949,0.657 -2.336,-0.219 -2.19,-1.46 -4.453,-2.117 -2.263,-0.73 -4.453,-0.73 -4.088,0 -6.205,1.606 -2.117,1.606 -2.117,4.234 0,4.088 5.402,5.256 l 6.643,1.387 q 4.672,1.022 7.081,3.285 2.409,2.19 2.409,5.986 0,4.891 -3.869,7.738 -3.869,2.774 -10.293,2.774 z"
         style="font-size:73px;font-family:Nunito, Nunito_MSFontService, sans-serif"
         id="path912" />
      <path
         d="m 162.05969,0.657 q -3.285,0 -6.643,-0.803 -3.285,-0.876 -6.132,-2.774 -1.314,-0.803 -1.314,-2.044 0.073,-1.314 1.022,-2.044 0.949,-0.73 2.409,0 2.847,1.752 5.475,2.482 2.701,0.657 5.329,0.657 4.161,0 6.278,-1.533 2.117,-1.533 2.117,-4.161 0,-2.044 -1.387,-3.212 -1.387,-1.241 -4.38,-1.898 l -6.643,-1.46 q -9.052,-1.971 -9.052,-9.344 0,-4.818 3.796,-7.738 3.869,-2.92 10.074,-2.92 3.139,0 6.059,0.876 2.92,0.803 5.256,2.628 1.241,0.876 1.095,2.117 -0.146,1.241 -1.168,1.971 -0.949,0.657 -2.336,-0.219 -2.19,-1.46 -4.453,-2.117 -2.263,-0.73 -4.453,-0.73 -4.088,0 -6.205,1.606 -2.117,1.606 -2.117,4.234 0,4.088 5.402,5.256 l 6.643,1.387 q 4.672,1.022 7.081,3.285 2.409,2.19 2.409,5.986 0,4.891 -3.869,7.738 -3.869,2.774 -10.293,2.774 z"
         style="font-size:73px;font-family:Nunito, Nunito_MSFontService, sans-serif"
         id="path914" />
      <path
         d="m 188.12062,-44.019 q -3.869,0 -3.869,-3.65 0,-3.577 3.869,-3.577 3.869,0 3.869,3.577 0,3.65 -3.869,3.65 z m 0,44.384 q -2.92,0 -2.92,-3.212 v -29.857 q 0,-3.139 2.92,-3.139 2.993,0 2.993,3.139 v 29.857 q 0,3.212 -2.993,3.212 z"
         style="font-size:73px;font-family:Nunito, Nunito_MSFontService, sans-serif"
         id="path916" />
      <path
         d="m 206.9545,0.511 q -2.92,0 -2.92,-3.066 v -28.324 h -4.672 q -2.555,0 -2.555,-2.336 0,-2.263 2.555,-2.263 h 4.672 v -1.241 q 0,-13.578 13.14,-14.673 l 2.19,-0.219 q 1.387,-0.146 2.044,0.511 0.657,0.657 0.657,1.606 0,0.876 -0.511,1.679 -0.438,0.73 -1.314,0.803 l -2.19,0.146 q -4.307,0.292 -6.205,2.701 -1.898,2.409 -1.898,6.716 v 1.971 h 18.98 q 2.92,0 2.92,3.139 v 29.492 q 0,3.212 -2.92,3.212 -2.993,0 -2.993,-3.212 v -28.032 h -15.987 v 28.324 q 0,3.066 -2.993,3.066 z m 22.046,-44.53 q -3.796,0 -3.796,-3.65 0,-3.577 3.796,-3.577 3.796,0 3.796,3.577 0,3.65 -3.796,3.65 z"
         style="font-size:73px;font-family:Nunito, Nunito_MSFontService, sans-serif"
         id="path918" />
      <path
         d="m 257.98136,0.657 q -5.329,0 -9.198,-2.263 -3.869,-2.336 -5.986,-6.497 -2.044,-4.234 -2.044,-9.855 0,-8.468 4.599,-13.286 4.599,-4.891 12.629,-4.891 2.628,0 5.475,0.876 2.847,0.803 5.183,2.701 1.241,0.876 1.022,2.19 -0.146,1.314 -1.241,1.971 -1.022,0.657 -2.409,-0.292 -1.971,-1.46 -3.942,-2.044 -1.898,-0.584 -3.723,-0.584 -5.548,0 -8.541,3.504 -2.993,3.431 -2.993,9.928 0,6.351 2.993,10.074 2.993,3.65 8.541,3.65 1.825,0 3.723,-0.584 1.971,-0.584 3.942,-2.044 1.387,-0.949 2.409,-0.219 1.022,0.657 1.095,1.971 0.146,1.314 -1.022,2.117 -2.336,1.898 -5.11,2.774 -2.774,0.803 -5.402,0.803 z"
         style="font-size:73px;font-family:Nunito, Nunito_MSFontService, sans-serif"
         id="path920" />
      <path
         d="m 287.61919,0.657 q -3.65,0 -6.57,-1.387 -2.847,-1.46 -4.526,-3.942 -1.679,-2.482 -1.679,-5.548 0,-3.869 1.971,-6.132 2.044,-2.263 6.643,-3.212 4.672,-1.022 12.702,-1.022 h 2.336 v -2.263 q 0,-4.526 -1.898,-6.497 -1.825,-2.044 -5.913,-2.044 -2.555,0 -5.183,0.657 -2.555,0.657 -5.329,2.117 -1.241,0.657 -2.117,0.292 -0.803,-0.438 -1.168,-1.314 -0.292,-0.949 0,-1.898 0.365,-1.022 1.46,-1.533 3.139,-1.606 6.278,-2.336 3.212,-0.73 6.059,-0.73 6.862,0 10.147,3.358 3.358,3.358 3.358,10.439 v 19.783 q 0,3.066 -2.701,3.066 -2.847,0 -2.847,-3.066 v -3.577 q -1.387,3.139 -4.307,4.964 -2.847,1.825 -6.716,1.825 z m 0.949,-4.453 q 4.38,0 7.154,-2.993 2.774,-3.066 2.774,-7.738 v -2.19 h -2.263 q -5.913,0 -9.344,0.584 -3.358,0.511 -4.745,1.898 -1.314,1.314 -1.314,3.65 0,2.993 2.044,4.891 2.117,1.898 5.694,1.898 z"
         style="font-size:73px;font-family:Nunito, Nunito_MSFontService, sans-serif"
         id="path922" />
      <path
         d="m 329.3751,0.657 q -6.278,0 -9.417,-3.285 -3.139,-3.358 -3.139,-9.636 v -18.615 h -4.891 q -2.555,0 -2.555,-2.336 0,-2.263 2.555,-2.263 h 4.891 v -8.395 q 0,-2.993 2.993,-2.993 2.92,0 2.92,2.993 v 8.395 h 9.198 q 2.555,0 2.555,2.263 0,2.336 -2.555,2.336 h -9.198 v 18.031 q 0,4.161 1.752,6.351 1.752,2.117 5.694,2.117 1.387,0 2.336,-0.292 0.949,-0.292 1.679,-0.292 0.657,-0.073 1.095,0.438 0.438,0.511 0.438,1.752 0,0.876 -0.365,1.606 -0.292,0.73 -1.095,1.022 -0.876,0.292 -2.336,0.511 -1.387,0.292 -2.555,0.292 z"
         style="font-size:73px;font-family:Nunito, Nunito_MSFontService, sans-serif"
         id="path924" />
      <path
         d="m 344.0479,-44.019 q -3.869,0 -3.869,-3.65 0,-3.577 3.869,-3.577 3.869,0 3.869,3.577 0,3.65 -3.869,3.65 z m 0,44.384 q -2.92,0 -2.92,-3.212 v -29.857 q 0,-3.139 2.92,-3.139 2.993,0 2.993,3.139 v 29.857 q 0,3.212 -2.993,3.212 z"
         style="font-size:73px;font-family:Nunito, Nunito_MSFontService, sans-serif"
         id="path926" />
      <path
         d="m 372.80978,0.657 q -5.183,0 -8.979,-2.263 -3.796,-2.263 -5.913,-6.351 -2.044,-4.161 -2.044,-9.782 0,-5.621 2.044,-9.709 2.117,-4.161 5.913,-6.424 3.796,-2.263 8.979,-2.263 5.11,0 8.906,2.263 3.869,2.263 5.913,6.424 2.117,4.088 2.117,9.709 0,5.621 -2.117,9.782 -2.044,4.088 -5.913,6.351 -3.796,2.263 -8.906,2.263 z m 0,-4.745 q 4.964,0 7.957,-3.504 2.993,-3.577 2.993,-10.147 0,-6.643 -2.993,-10.147 -2.993,-3.504 -7.957,-3.504 -5.037,0 -8.03,3.504 -2.92,3.504 -2.92,10.147 0,6.57 2.92,10.147 2.993,3.504 8.03,3.504 z"
         style="font-size:73px;font-family:Nunito, Nunito_MSFontService, sans-serif"
         id="path928" />
      <path
         d="m 401.57176,0.511 q -2.92,0 -2.92,-3.066 v -30.441 q 0,-2.993 2.847,-2.993 2.92,0 2.92,2.993 v 3.577 q 1.752,-3.358 4.964,-5.037 3.212,-1.679 7.227,-1.679 12.629,0 12.629,14.016 v 19.564 q 0,3.066 -2.92,3.066 -2.993,0 -2.993,-3.066 v -19.199 q 0,-4.964 -1.971,-7.227 -1.898,-2.336 -6.132,-2.336 -4.891,0 -7.811,3.066 -2.847,2.993 -2.847,8.03 v 17.666 q 0,3.066 -2.993,3.066 z"
         style="font-size:73px;font-family:Nunito, Nunito_MSFontService, sans-serif"
         id="path930" />
      <path
         d="m 115.924,88 q -3.285,0 -3.285,-3.285 V 39.82 q 0,-3.285 3.285,-3.285 h 27.156 q 2.555,0 2.555,2.482 0,2.555 -2.555,2.555 h -24.601 v 17.812 h 23.068 q 2.555,0 2.555,2.482 0,2.555 -2.555,2.555 h -23.068 v 18.542 h 24.601 q 2.555,0 2.555,2.482 0,2.555 -2.555,2.555 z"
         id="path932" />
      <path
         d="m 157.31488,88.511 q -2.92,0 -2.92,-3.066 V 55.004 q 0,-2.993 2.847,-2.993 2.92,0 2.92,2.993 v 3.577 q 1.752,-3.358 4.964,-5.037 3.212,-1.679 7.227,-1.679 12.629,0 12.629,14.016 v 19.564 q 0,3.066 -2.92,3.066 -2.993,0 -2.993,-3.066 V 66.246 q 0,-4.964 -1.971,-7.227 -1.898,-2.336 -6.132,-2.336 -4.891,0 -7.811,3.066 -2.847,2.993 -2.847,8.03 v 17.666 q 0,3.066 -2.993,3.066 z"
         id="path934" />
      <path
         d="m 211.5538,101.797 q -3.869,0 -7.592,-0.949 -3.65,-0.876 -6.643,-2.847 -1.095,-0.657 -1.314,-1.606 -0.146,-0.876 0.292,-1.752 0.438,-0.803 1.241,-1.168 0.876,-0.365 1.825,0.146 3.212,1.971 6.132,2.701 2.92,0.73 5.767,0.73 10.512,0 10.512,-10.804 V 79.97 q -1.533,3.358 -4.818,5.329 -3.212,1.898 -7.373,1.898 -4.891,0 -8.468,-2.263 -3.577,-2.263 -5.548,-6.205 -1.898,-4.015 -1.898,-9.271 0,-5.256 1.898,-9.198 1.971,-4.015 5.548,-6.205 3.577,-2.19 8.468,-2.19 4.161,0 7.373,1.825 3.212,1.825 4.745,5.11 v -3.796 q 0,-2.993 2.92,-2.993 2.92,0 2.92,2.993 v 30.441 q 0,8.176 -4.088,12.264 -4.015,4.088 -11.899,4.088 z m -0.876,-19.418 q 5.11,0 8.103,-3.504 2.993,-3.504 2.993,-9.417 0,-5.913 -2.993,-9.344 -2.993,-3.504 -8.103,-3.504 -5.037,0 -8.03,3.504 -2.993,3.431 -2.993,9.344 0,5.913 2.993,9.417 2.993,3.504 8.03,3.504 z"
         id="path936" />
      <path
         d="m 241.55669,43.981 q -3.869,0 -3.869,-3.65 0,-3.577 3.869,-3.577 3.869,0 3.869,3.577 0,3.65 -3.869,3.65 z m 0,44.384 q -2.92,0 -2.92,-3.212 V 55.296 q 0,-3.139 2.92,-3.139 2.993,0 2.993,3.139 v 29.857 q 0,3.212 -2.993,3.212 z"
         id="path938" />
      <path
         d="m 258.49257,88.511 q -2.92,0 -2.92,-3.066 V 55.004 q 0,-2.993 2.847,-2.993 2.92,0 2.92,2.993 v 3.577 q 1.752,-3.358 4.964,-5.037 3.212,-1.679 7.227,-1.679 12.629,0 12.629,14.016 v 19.564 q 0,3.066 -2.92,3.066 -2.993,0 -2.993,-3.066 V 66.246 q 0,-4.964 -1.971,-7.227 -1.898,-2.336 -6.132,-2.336 -4.891,0 -7.811,3.066 -2.847,2.993 -2.847,8.03 v 17.666 q 0,3.066 -2.993,3.066 z"
         id="path940" />
      <path
         d="m 313.0235,88.657 q -8.395,0 -13.286,-4.891 -4.891,-4.964 -4.891,-13.432 0,-5.475 2.19,-9.636 2.19,-4.234 5.986,-6.497 3.869,-2.336 8.906,-2.336 7.227,0 11.315,4.672 4.088,4.599 4.088,12.702 0,2.263 -2.555,2.263 h -24.163 q 0.292,6.059 3.504,9.271 3.212,3.139 8.906,3.139 2.409,0 4.891,-0.584 2.482,-0.657 4.818,-2.263 1.679,-1.095 2.774,-0.438 1.168,0.657 1.168,2.044 0.073,1.314 -1.46,2.336 -2.409,1.752 -5.767,2.701 -3.285,0.949 -6.424,0.949 z m -0.949,-32.412 q -5.037,0 -7.957,3.139 -2.92,3.139 -3.431,8.249 h 21.535 q -0.219,-5.402 -2.847,-8.395 -2.555,-2.993 -7.3,-2.993 z"
         id="path942" />
    </g>
    <path
       d="m 1403,1038.84 h 35.63 v 10.32 H 1403 Z m 30.47,-10.31 30.94,15.47 -30.94,15.47 z"
       fill="#a5a5a5"
       id="path25" />
    <path
       d="m 2034,1038.84 h 35.63 v 10.32 H 2034 Z m 30.47,-10.31 30.94,15.47 -30.94,15.47 z"
       fill="#a5a5a5"
       id="path27" />
  </g>
</svg>
